<svg width="68" height="60" viewBox="0 0 68 60" fill="none" xmlns="http://www.w3.org/2000/svg">
<path d="M26.2191 38.0272L22.2737 27.1871L48.5074 17.6392L56.1453 38.6254L36.1171 45.9156" stroke="#ED682C" stroke-width="3" stroke-miterlimit="10"/>
<path d="M32.4407 53.1949L66.9903 40.6204" stroke="#3255F5" stroke-width="3" stroke-miterlimit="10"/>
<path d="M32.5353 47.2189C34.1174 51.566 31.8756 56.3713 27.5298 57.9534C23.1839 59.5355 18.3774 57.295 16.7953 52.9479C15.2132 48.6008 17.4537 43.7955 21.8008 42.2134C26.1479 40.6313 30.9531 42.873 32.5353 47.2189V47.2189Z" stroke="#E90041" stroke-width="3" stroke-miterlimit="10"/>
<path d="M27.289 49.129C27.816 50.5785 27.0691 52.1802 25.6209 52.7072C24.1715 53.2342 22.5697 52.4873 22.0427 51.0391C21.5158 49.5909 22.2626 47.9879 23.7108 47.4609C25.159 46.934 26.762 47.6808 27.289 49.129Z" stroke="#E90041" stroke-width="3" stroke-miterlimit="10"/>
<path d="M1 2L5.97971 3.55754C7.22525 3.94692 8.21898 4.89521 8.66486 6.12232L21.8008 42.2147" stroke="#3255F5" stroke-width="3" stroke-miterlimit="10"/>
<path d="M35.256 22.0442L37.4437 28.0569" stroke="#495053" stroke-width="3" stroke-miterlimit="10"/>
<path d="M47.268 35.9158L50.3008 34.8115" stroke="#495053" stroke-width="3" stroke-miterlimit="10"/>
<path d="M42.0205 37.8247L45.0545 36.7217" stroke="#495053" stroke-width="3" stroke-miterlimit="10"/>
</svg>
