<svg width="59" height="63" viewBox="0 0 59 63" fill="none" xmlns="http://www.w3.org/2000/svg">
<path d="M20.467 45.3986C20.2438 45.3986 20.0236 45.3287 19.8358 45.1949C19.5069 44.9562 19.3396 44.5546 19.4101 44.1558L21.1216 34.2663L13.8731 27.261C13.5795 26.9787 13.4768 26.5567 13.603 26.1696C13.7293 25.7855 14.0639 25.5032 14.4691 25.445L24.4861 24.0014L28.9661 15.0025C29.3302 14.2749 30.528 14.2749 30.892 15.0025L35.3721 24.0014L45.3891 25.445C45.7942 25.5032 46.1289 25.7826 46.2552 26.1696C46.3814 26.5538 46.2757 26.9758 45.9851 27.261L38.7365 34.2663L40.4481 44.1558C40.5156 44.5546 40.3512 44.9591 40.0224 45.1949C39.6907 45.4335 39.2532 45.4655 38.8921 45.2763L29.932 40.6081L20.9719 45.2763C20.8134 45.3578 20.6431 45.3986 20.4728 45.3986H20.467ZM29.9262 38.3409C30.0964 38.3409 30.2696 38.3816 30.4252 38.4631L37.9585 42.3892L36.52 34.0713C36.4613 33.725 36.5758 33.3729 36.8283 33.1313L42.923 27.2407L34.5002 26.027C34.1508 25.9776 33.8484 25.7593 33.6928 25.445L29.9262 17.8779L26.1595 25.445C26.0039 25.7593 25.7015 25.9776 25.3521 26.027L16.9293 27.2407L23.024 33.1313C23.2765 33.3758 23.391 33.7279 23.3323 34.0713L21.8938 42.3892L29.4271 38.4631C29.5827 38.3816 29.7559 38.3409 29.9262 38.3409Z" fill="#ED682C"/>
<path d="M29.9262 62.4999C29.3331 62.4999 28.8517 62.0226 28.8517 61.4347V52.0313C28.8517 51.4434 29.3331 50.9661 29.9262 50.9661C30.5192 50.9661 31.0007 51.4434 31.0007 52.0313V61.4347C31.0007 62.0226 30.5192 62.4999 29.9262 62.4999Z" fill="#3255F5"/>
<path d="M29.9262 8.72185C29.3331 8.72185 28.8517 8.24454 28.8517 7.65664V1.5652C28.8517 0.977304 29.3331 0.5 29.9262 0.5C30.5192 0.5 31.0007 0.977304 31.0007 1.5652V7.65955C31.0007 8.24745 30.5192 8.72476 29.9262 8.72476V8.72185Z" fill="#B374F7"/>
<path d="M57.8516 34.1617H51.7921C51.1991 34.1617 50.7176 33.6844 50.7176 33.0965C50.7176 32.5086 51.1991 32.0312 51.7921 32.0312H57.8516C58.4447 32.0312 58.9261 32.5086 58.9261 33.0965C58.9261 33.6844 58.4447 34.1617 57.8516 34.1617Z" fill="#3255F5"/>
<path d="M8.05725 34.1617H2.00066C1.40762 34.1617 0.926147 33.6844 0.926147 33.0965C0.926147 32.5086 1.40762 32.0312 2.00066 32.0312H8.05725C8.65028 32.0312 9.13176 32.5086 9.13176 33.0965C9.13176 33.6844 8.65028 34.1617 8.05725 34.1617Z" fill="#E8065B"/>
<path d="M56.0255 58.9696C55.7496 58.9696 55.4766 58.8649 55.2652 58.6582L46.3696 49.8398C45.9498 49.4236 45.9498 48.7513 46.3696 48.3351C46.7895 47.9189 47.4676 47.9189 47.8875 48.3351L56.783 57.1536C57.2028 57.5698 57.2028 58.242 56.783 58.6582C56.5745 58.8649 56.2986 58.9696 56.0255 58.9696Z" fill="#1FBFD4"/>
<path d="M14.3869 18.7539C14.1109 18.7539 13.8379 18.6491 13.6294 18.4425L3.06636 7.97379C2.64654 7.55761 2.64654 6.88531 3.06636 6.46912C3.48618 6.05294 4.16436 6.05294 4.58418 6.46912L15.1443 16.9378C15.5641 17.354 15.5641 18.0263 15.1443 18.4425C14.9359 18.6491 14.6599 18.7539 14.3839 18.7539H14.3869Z" fill="#8BC800"/>
<path d="M3.82673 58.9698C3.55077 58.9698 3.27773 58.865 3.06929 58.6584C2.64947 58.2422 2.64947 57.5699 3.06929 57.1537L11.8679 48.4313C12.2878 48.0151 12.9659 48.0151 13.3858 48.4313C13.8056 48.8475 13.8056 49.5198 13.3858 49.9359L4.58711 58.6584C4.37867 58.865 4.1027 58.9698 3.82673 58.9698Z" fill="#E90041"/>
<path d="M44.9957 19.2195C44.7197 19.2195 44.4467 19.1148 44.2353 18.9081C43.8155 18.4919 43.8155 17.8196 44.2353 17.4035L55.2652 6.46912C55.685 6.05294 56.3632 6.05294 56.783 6.46912C57.2028 6.88531 57.2028 7.55761 56.783 7.97379L45.7532 18.9081C45.5447 19.1148 45.2687 19.2195 44.9928 19.2195H44.9957Z" fill="#F7C844"/>
</svg>
