<svg width="63" height="58" viewBox="0 0 63 58" fill="none" xmlns="http://www.w3.org/2000/svg">
<path d="M62.6817 14.6171C62.4467 14.2752 62.0788 14.071 61.6862 14.071H12.9805L10.783 6.85584C10.6957 6.56956 10.5237 6.32315 10.2936 6.15594L2.8539 0.727413C2.2871 0.313799 1.51449 0.478162 1.13438 1.10371C0.754011 1.72669 0.909205 2.56959 1.47833 2.98576L8.56482 8.15735L10.8994 15.8177L18.1966 42.4465L15.9369 47.3928C15.7456 47.8144 15.7649 48.3126 15.9901 48.7128C16.2179 49.113 16.6173 49.3569 17.046 49.3569H51.7662C52.4516 49.3569 53.0062 48.7498 53.0062 47.9998C53.0062 47.2498 52.4516 46.6427 51.7662 46.6427H19.0514L20.2924 43.9283H54.2463C54.7937 43.9283 55.2755 43.5361 55.4331 42.961L62.8731 15.818C62.9869 15.4073 62.9141 14.9617 62.6817 14.6174V14.6171ZM13.7528 16.7854H20.9899L22.9741 27.6427H16.7286L15.476 23.0733L13.7528 16.7854ZM23.5184 16.7854H35.6462V27.6427H25.5024L23.5182 16.7854H23.5184ZM20.4489 41.2142L17.4726 30.3569H23.4699L25.4541 41.2142H20.4489ZM25.9984 30.3569H35.6462V41.2142H27.9824L25.9982 30.3569H25.9984ZM38.1262 30.3569H47.7741L45.7899 41.2142H38.126V30.3569H38.1262ZM38.1262 27.6425V16.7851H50.2541L48.2699 27.6425H38.126H38.1262ZM53.3236 41.2139H48.3184L50.3026 30.3566H56.2999L53.3236 41.2139ZM57.0439 27.6425H50.7984L52.7826 16.7851H60.0202L57.0439 27.6425Z" fill="#ED682C"/>
<path d="M43.0864 53.4286C43.0864 55.6739 44.7551 57.5001 46.8064 57.5001C48.8577 57.5001 50.5264 55.6739 50.5264 53.4286C50.5264 51.1834 48.8577 49.3572 46.8064 49.3572C44.7551 49.3572 43.0864 51.1834 43.0864 53.4286ZM46.8064 52.0716C47.4894 52.0716 48.0464 52.6812 48.0464 53.4286C48.0464 54.1761 47.4894 54.7857 46.8064 54.7857C46.1234 54.7857 45.5664 54.1761 45.5664 53.4286C45.5664 52.6812 46.1234 52.0716 46.8064 52.0716Z" fill="#3255F5"/>
<path d="M18.2864 53.4286C18.2864 55.6739 19.955 57.5001 22.0064 57.5001C24.0577 57.5001 25.7264 55.6739 25.7264 53.4286C25.7264 51.1834 24.0577 49.3572 22.0064 49.3572C19.955 49.3572 18.2864 51.1834 18.2864 53.4286ZM22.0064 52.0716C22.6894 52.0716 23.2464 52.6812 23.2464 53.4286C23.2464 54.1761 22.6894 54.7857 22.0064 54.7857C21.3234 54.7857 20.7664 54.1761 20.7664 53.4286C20.7664 52.6812 21.3234 52.0716 22.0064 52.0716Z" fill="#3255F5"/>
</svg>
