<svg width="46" height="58" viewBox="0 0 46 58" fill="none" xmlns="http://www.w3.org/2000/svg">
<path d="M29.8663 18.6914C29.8663 7.98265 23.4711 1.71265 15.495 1.71265C6.65671 1.71265 1.12378 8.98924 1.12378 19.9041C1.12378 28.8907 10.6447 38.1684 15.495 39.3084C14.022 41.1154 11.9382 44.875 13.0998 45.3722C14.5968 46.015 18.7405 45.8816 20.2855 45.3722C21.531 44.9599 18.0579 41.2488 16.6926 39.3084C21.4232 37.7197 29.8663 27.678 29.8663 18.6914Z" stroke="#E90041" stroke-width="2" stroke-miterlimit="10"/>
<path d="M13.531 6.19995C8.54891 7.55825 5.91418 12.664 5.91418 19.9042" stroke="#ED682C" stroke-width="2" stroke-miterlimit="10" stroke-linecap="round"/>
<path d="M16.6926 45.3723C16.1656 46.7306 15.1237 48.4042 15.495 50.2234C15.8183 51.7757 17.8902 52.6853 17.8902 56.2872" stroke="#3255F5" stroke-width="2" stroke-miterlimit="10"/>
<path d="M31.0639 11.415C31.8543 11.2331 32.6687 11.1482 33.519 11.1482C40.8723 11.1482 44.7285 16.9452 44.7285 25.3376C44.7285 33.7299 38.01 38.7507 33.4591 40.5214C34.6088 41.9282 37.9621 46.1971 37.0519 46.5852C35.8902 47.0946 31.0639 46.9854 29.8663 46.5852C28.8962 46.2699 31.1956 42.0373 32.2615 40.5214C30.6447 39.9756 28.0339 38.1201 26.3094 35.6703" stroke="#1FBFD4" stroke-width="2" stroke-miterlimit="10"/>
<path d="M33.4591 46.5852C32.5609 48.0527 31.8064 49.4352 32.2615 51.4363C32.5728 52.7946 34.6567 54.3469 34.6567 57.5001" stroke="#3255F5" stroke-width="2" stroke-miterlimit="10"/>
</svg>
