<svg width="15" height="15" viewBox="0 0 15 15" fill="none" xmlns="http://www.w3.org/2000/svg">
<path d="M12.15 8.12498C12.0125 8.12498 11.8688 8.08123 11.7313 8.04998C11.4528 7.98862 11.1792 7.90716 10.9125 7.80623C10.6226 7.70075 10.3038 7.70622 10.0177 7.82161C9.73155 7.93699 9.49818 8.15413 9.3625 8.43123L9.225 8.71248C8.61625 8.37384 8.05687 7.95325 7.5625 7.46248C7.07173 6.96811 6.65114 6.40873 6.3125 5.79998L6.575 5.62498C6.85211 5.4893 7.06924 5.25593 7.18462 4.96979C7.30001 4.68364 7.30548 4.36492 7.2 4.07498C7.10077 3.80774 7.01934 3.53423 6.95625 3.25623C6.925 3.11873 6.9 2.97498 6.88125 2.83123C6.80536 2.39099 6.57477 1.99232 6.23102 1.707C5.88726 1.42169 5.45294 1.26848 5.00625 1.27498H3.13125C2.8619 1.27245 2.59516 1.32799 2.3492 1.43781C2.10323 1.54763 1.88382 1.70916 1.7059 1.9114C1.52797 2.11365 1.39571 2.35185 1.31812 2.6098C1.24053 2.86775 1.21943 3.13939 1.25625 3.40623C1.58921 6.02459 2.78502 8.4574 4.65478 10.3204C6.52455 12.1834 8.96169 13.3703 11.5813 13.6937H11.8188C12.2796 13.6944 12.7246 13.5253 13.0688 13.2187C13.2665 13.0419 13.4244 12.8251 13.5322 12.5827C13.6399 12.3403 13.695 12.0778 13.6938 11.8125V9.93748C13.6861 9.50334 13.528 9.08532 13.2465 8.75477C12.9649 8.42422 12.5774 8.20162 12.15 8.12498ZM12.4625 11.875C12.4624 11.9637 12.4434 12.0514 12.4067 12.1322C12.3701 12.2131 12.3167 12.2852 12.25 12.3437C12.1804 12.4044 12.0987 12.4496 12.0104 12.4765C11.9221 12.5035 11.8291 12.5115 11.7375 12.5C9.39682 12.1999 7.22265 11.129 5.55795 9.45641C3.89325 7.78379 2.83276 5.60456 2.54375 3.26248C2.5338 3.17093 2.54252 3.07831 2.56938 2.99022C2.59623 2.90214 2.64067 2.82041 2.7 2.74998C2.75857 2.68331 2.83067 2.62988 2.91149 2.59324C2.99231 2.5566 3.08001 2.53759 3.16875 2.53748H5.04375C5.18909 2.53424 5.33102 2.58178 5.44509 2.6719C5.55917 2.76202 5.63826 2.88908 5.66875 3.03123C5.69375 3.20206 5.725 3.37081 5.7625 3.53748C5.8347 3.86694 5.93079 4.19072 6.05 4.50623L5.175 4.91248C5.10019 4.9468 5.03289 4.99557 4.97698 5.05598C4.92106 5.11638 4.87763 5.18724 4.84917 5.26448C4.82072 5.34171 4.8078 5.42381 4.81116 5.50605C4.81452 5.5883 4.83409 5.66907 4.86875 5.74373C5.76825 7.67045 7.31703 9.21923 9.24375 10.1187C9.39592 10.1812 9.56659 10.1812 9.71875 10.1187C9.7967 10.0908 9.86833 10.0478 9.92948 9.99197C9.99064 9.93618 10.0401 9.86879 10.075 9.79373L10.4625 8.91873C10.7856 9.03428 11.1154 9.13028 11.45 9.20623C11.6167 9.24373 11.7854 9.27498 11.9563 9.29998C12.0984 9.33047 12.2255 9.40956 12.3156 9.52364C12.4057 9.63771 12.4532 9.77964 12.45 9.92498L12.4625 11.875Z" fill="white"/>
</svg>
