<svg width="26" height="26" viewBox="0 0 26 26" fill="none" xmlns="http://www.w3.org/2000/svg">
<path d="M22.7309 17.128H7.89531C7.61426 17.128 7.34472 17.0164 7.14599 16.8176C6.94726 16.6189 6.83562 16.3494 6.83562 16.0683C6.83562 15.7873 6.94726 15.5177 7.14599 15.319C7.34472 15.1203 7.61426 15.0086 7.89531 15.0086H18.9585C19.667 15.0087 20.3553 14.772 20.914 14.3362C21.4727 13.9004 21.8697 13.2904 22.0421 12.6031L23.7906 5.72575C23.8303 5.56935 23.8338 5.40595 23.8007 5.24801C23.7677 5.09008 23.699 4.94177 23.5999 4.81442C23.4968 4.68379 23.3645 4.57927 23.2135 4.50931C23.0625 4.43935 22.8972 4.40593 22.7309 4.41174H7.64098C7.42235 3.79335 7.01781 3.25773 6.48281 2.8783C5.94781 2.49887 5.30855 2.2942 4.65266 2.29236H3.65655C3.3755 2.29236 3.10597 2.404 2.90724 2.60273C2.70851 2.80146 2.59686 3.071 2.59686 3.35205C2.59686 3.63309 2.70851 3.90263 2.90724 4.10136C3.10597 4.30009 3.3755 4.41174 3.65655 4.41174H4.65266C4.89473 4.40468 5.13191 4.48076 5.32472 4.62729C5.51753 4.77383 5.65433 4.98198 5.71235 5.2171L5.77593 5.72575L7.60919 12.8892C6.76605 12.9272 5.97251 13.2985 5.40315 13.9215C4.83379 14.5445 4.53524 15.3682 4.57318 16.2114C4.61112 17.0545 4.98245 17.848 5.60547 18.4174C6.22848 18.9868 7.05217 19.2853 7.89531 19.2474H8.08605C7.91177 19.7276 7.85577 20.2427 7.92278 20.7491C7.9898 21.2555 8.17787 21.7383 8.47105 22.1566C8.76424 22.5749 9.15391 22.9164 9.60708 23.1522C10.0602 23.388 10.5635 23.5111 11.0744 23.5111C11.5852 23.5111 12.0885 23.388 12.5417 23.1522C12.9948 22.9164 13.3845 22.5749 13.6777 22.1566C13.9709 21.7383 14.1589 21.2555 14.226 20.7491C14.293 20.2427 14.237 19.7276 14.0627 19.2474H16.5636C16.3893 19.7276 16.3333 20.2427 16.4003 20.7491C16.4673 21.2555 16.6554 21.7383 16.9486 22.1566C17.2417 22.5749 17.6314 22.9164 18.0846 23.1522C18.5377 23.388 19.0411 23.5111 19.5519 23.5111C20.0627 23.5111 20.566 23.388 21.0192 23.1522C21.4723 22.9164 21.862 22.5749 22.1552 22.1566C22.4484 21.7383 22.6364 21.2555 22.7035 20.7491C22.7705 20.2427 22.7145 19.7276 22.5402 19.2474H22.7309C23.012 19.2474 23.2815 19.1357 23.4803 18.937C23.679 18.7383 23.7906 18.4687 23.7906 18.1877C23.7906 17.9066 23.679 17.6371 23.4803 17.4384C23.2815 17.2396 23.012 17.128 22.7309 17.128ZM21.3745 6.53111L19.9864 12.0839C19.9283 12.319 19.7915 12.5272 19.5987 12.6737C19.4059 12.8202 19.1687 12.8963 18.9267 12.8892H9.78155L8.19202 6.53111H21.3745ZM11.0744 21.3668C10.8648 21.3668 10.6599 21.3046 10.4856 21.1882C10.3114 21.0717 10.1756 20.9062 10.0953 20.7126C10.0151 20.519 9.99416 20.3059 10.035 20.1003C10.0759 19.8948 10.1769 19.706 10.3251 19.5578C10.4733 19.4096 10.6621 19.3086 10.8676 19.2677C11.0732 19.2269 11.2863 19.2478 11.4799 19.328C11.6735 19.4082 11.839 19.5441 11.9555 19.7183C12.0719 19.8926 12.1341 20.0975 12.1341 20.3071C12.1341 20.5881 12.0224 20.8576 11.8237 21.0564C11.625 21.2551 11.3554 21.3668 11.0744 21.3668ZM19.5519 21.3668C19.3423 21.3668 19.1374 21.3046 18.9631 21.1882C18.7889 21.0717 18.6531 20.9062 18.5729 20.7126C18.4927 20.519 18.4717 20.3059 18.5126 20.1003C18.5534 19.8948 18.6544 19.706 18.8026 19.5578C18.9508 19.4096 19.1396 19.3086 19.3451 19.2677C19.5507 19.2269 19.7638 19.2478 19.9574 19.328C20.151 19.4082 20.3165 19.5441 20.433 19.7183C20.5494 19.8926 20.6116 20.0975 20.6116 20.3071C20.6116 20.5881 20.4999 20.8576 20.3012 21.0564C20.1025 21.2551 19.8329 21.3668 19.5519 21.3668Z" fill="white"/>
</svg>
