<svg width="24" height="24" viewBox="0 0 24 24" fill="none" xmlns="http://www.w3.org/2000/svg">
<path d="M20.1122 4.96597C19.0637 3.91482 17.674 3.27326 16.1939 3.15717C14.7138 3.04109 13.241 3.45814 12.0416 4.33298C10.7832 3.39698 9.21686 2.97256 7.65806 3.14517C6.09925 3.31779 4.66375 4.07462 3.64062 5.26326C2.61749 6.4519 2.08273 7.98405 2.14403 9.55118C2.20532 11.1183 2.85813 12.604 3.97098 13.7091L10.1129 19.861C10.6273 20.3671 11.32 20.6508 12.0416 20.6508C12.7632 20.6508 13.4559 20.3671 13.9702 19.861L20.1122 13.7091C21.2669 12.5472 21.9151 10.9757 21.9151 9.33753C21.9151 7.69941 21.2669 6.12783 20.1122 4.96597ZM18.7176 12.3442L12.5757 18.4862C12.5058 18.5568 12.4226 18.6128 12.3309 18.651C12.2392 18.6892 12.1409 18.7089 12.0416 18.7089C11.9422 18.7089 11.8439 18.6892 11.7522 18.651C11.6606 18.6128 11.5774 18.5568 11.5075 18.4862L5.36553 12.3146C4.58989 11.5217 4.15555 10.4566 4.15555 9.34743C4.15555 8.23825 4.58989 7.17317 5.36553 6.3803C6.15593 5.59993 7.22194 5.16236 8.33266 5.16236C9.44338 5.16236 10.5094 5.59993 11.2998 6.3803C11.3917 6.473 11.5011 6.54658 11.6216 6.59679C11.7422 6.647 11.8714 6.67285 12.002 6.67285C12.1326 6.67285 12.2619 6.647 12.3824 6.59679C12.5029 6.54658 12.6123 6.473 12.7042 6.3803C13.4946 5.59993 14.5606 5.16236 15.6714 5.16236C16.7821 5.16236 17.8481 5.59993 18.6385 6.3803C19.4248 7.16278 19.8734 8.22208 19.8882 9.33129C19.903 10.4405 19.4828 11.5114 18.7176 12.3146V12.3442Z" fill="white"/>
</svg>
