<svg width="24" height="25" viewBox="0 0 24 25" fill="none" xmlns="http://www.w3.org/2000/svg">
<path d="M15.7109 12.896C16.6806 12.1331 17.3883 11.087 17.7357 9.90309C18.0831 8.71923 18.0529 7.45652 17.6492 6.29064C17.2456 5.12476 16.4886 4.11368 15.4835 3.39808C14.4785 2.68247 13.2754 2.29791 12.0416 2.29791C10.8078 2.29791 9.60469 2.68247 8.59964 3.39808C7.59459 4.11368 6.83757 5.12476 6.43391 6.29064C6.03025 7.45652 6.00002 8.71923 6.34742 9.90309C6.69482 11.087 7.40258 12.1331 8.37223 12.896C6.71071 13.5617 5.26098 14.6657 4.17759 16.0905C3.0942 17.5153 2.41776 19.2074 2.22038 20.9864C2.2061 21.1162 2.21753 21.2477 2.25403 21.3731C2.29054 21.4986 2.3514 21.6156 2.43314 21.7176C2.59822 21.9235 2.83832 22.0553 3.10063 22.0842C3.36294 22.1131 3.62597 22.0365 3.83185 21.8714C4.03774 21.7064 4.16961 21.4663 4.19847 21.204C4.41565 19.2706 5.33753 17.485 6.788 16.1883C8.23846 14.8917 10.1158 14.1749 12.0614 14.1749C14.0069 14.1749 15.8843 14.8917 17.3347 16.1883C18.7852 17.485 19.7071 19.2706 19.9242 21.204C19.9511 21.447 20.0671 21.6714 20.2497 21.834C20.4324 21.9965 20.6688 22.0857 20.9133 22.0842H21.0221C21.2813 22.0544 21.5183 21.9233 21.6813 21.7195C21.8444 21.5157 21.9202 21.2557 21.8924 20.9963C21.6941 19.2122 21.014 17.5158 19.9251 16.0888C18.8361 14.6619 17.3794 13.5581 15.7109 12.896ZM12.0416 12.1938C11.2591 12.1938 10.4942 11.9618 9.84365 11.527C9.19306 11.0923 8.68598 10.4745 8.38655 9.75157C8.08712 9.02867 8.00877 8.23322 8.16142 7.46579C8.31407 6.69837 8.69086 5.99345 9.24414 5.44017C9.79742 4.88689 10.5023 4.5101 11.2698 4.35745C12.0372 4.2048 12.8326 4.28315 13.5555 4.58258C14.2784 4.88201 14.8963 5.38908 15.331 6.03967C15.7657 6.69026 15.9977 7.45515 15.9977 8.2376C15.9977 9.28685 15.5809 10.2931 14.839 11.035C14.0971 11.777 13.0908 12.1938 12.0416 12.1938Z" fill="white"/>
</svg>
