<svg width="25" height="24" viewBox="0 0 25 24" fill="none" xmlns="http://www.w3.org/2000/svg">
<path d="M19.94 12.9999C19.72 12.9999 19.49 12.9299 19.27 12.8799C18.8245 12.7817 18.3867 12.6514 17.96 12.4899C17.4961 12.3211 16.9861 12.3299 16.5283 12.5145C16.0705 12.6991 15.6971 13.0465 15.48 13.4899L15.26 13.9399C14.286 13.398 13.391 12.7251 12.6 11.9399C11.8148 11.1489 11.1418 10.2539 10.6 9.27987L11.02 8.99987C11.4634 8.78278 11.8108 8.4094 11.9954 7.95156C12.18 7.49372 12.1888 6.98378 12.02 6.51987C11.8612 6.09229 11.7309 5.65467 11.63 5.20987C11.58 4.98987 11.54 4.75987 11.51 4.52987C11.3886 3.82549 11.0196 3.18761 10.4696 2.73111C9.91962 2.2746 9.2247 2.02948 8.51 2.03987H5.51C5.07903 2.03582 4.65225 2.12468 4.25871 2.3004C3.86517 2.47612 3.51411 2.73456 3.22943 3.05815C2.94475 3.38174 2.73314 3.76286 2.60899 4.17558C2.48484 4.5883 2.45108 5.02293 2.51 5.44987C3.04274 9.63925 4.95603 13.5317 7.94765 16.5125C10.9393 19.4933 14.8387 21.3924 19.03 21.9099H19.41C20.1474 21.9109 20.8594 21.6404 21.41 21.1499C21.7264 20.8669 21.9791 20.52 22.1515 20.1322C22.3239 19.7443 22.412 19.3243 22.41 18.8999V15.8999C22.3978 15.2053 22.1448 14.5364 21.6943 14.0075C21.2439 13.4786 20.6238 13.1225 19.94 12.9999ZM20.44 18.9999C20.4398 19.1419 20.4094 19.2822 20.3508 19.4115C20.2922 19.5408 20.2067 19.6562 20.1 19.7499C19.9886 19.8469 19.858 19.9193 19.7167 19.9624C19.5754 20.0054 19.4266 20.0182 19.28 19.9999C15.5349 19.5197 12.0562 17.8064 9.39272 15.1302C6.7292 12.454 5.03241 8.96721 4.57 5.21987C4.55409 5.07339 4.56803 4.9252 4.611 4.78426C4.65397 4.64332 4.72507 4.51256 4.82 4.39987C4.91371 4.2932 5.02906 4.20771 5.15838 4.14909C5.2877 4.09046 5.42802 4.06005 5.57 4.05987H8.57C8.80255 4.05469 9.02962 4.13075 9.21215 4.27494C9.39467 4.41913 9.52121 4.62244 9.57 4.84987C9.61 5.1232 9.66 5.3932 9.72 5.65987C9.83552 6.18701 9.98926 6.70505 10.18 7.20987L8.78 7.85987C8.6603 7.91479 8.55262 7.99281 8.46316 8.08946C8.37369 8.18611 8.3042 8.29948 8.25867 8.42306C8.21314 8.54664 8.19247 8.678 8.19785 8.80959C8.20323 8.94118 8.23454 9.07041 8.29 9.18987C9.7292 12.2726 12.2072 14.7507 15.29 16.1899C15.5335 16.2899 15.8065 16.2899 16.05 16.1899C16.1747 16.1453 16.2893 16.0763 16.3872 15.9871C16.485 15.8978 16.5642 15.79 16.62 15.6699L17.24 14.2699C17.757 14.4547 18.2846 14.6084 18.82 14.7299C19.0867 14.7899 19.3567 14.8399 19.63 14.8799C19.8574 14.9287 20.0607 15.0552 20.2049 15.2377C20.3491 15.4202 20.4252 15.6473 20.42 15.8799L20.44 18.9999Z" fill="#B374F7"/>
</svg>
