<svg width="25" height="24" viewBox="0 0 25 24" fill="none" xmlns="http://www.w3.org/2000/svg">
<path d="M12.5 2C10.3783 2 8.34344 2.84285 6.84315 4.34315C5.34285 5.84344 4.5 7.87827 4.5 10C4.5 15.4 11.55 21.5 11.85 21.76C12.0311 21.9149 12.2616 22.0001 12.5 22.0001C12.7384 22.0001 12.9689 21.9149 13.15 21.76C13.5 21.5 20.5 15.4 20.5 10C20.5 7.87827 19.6571 5.84344 18.1569 4.34315C16.6566 2.84285 14.6217 2 12.5 2ZM12.5 19.65C10.37 17.65 6.5 13.34 6.5 10C6.5 8.4087 7.13214 6.88258 8.25736 5.75736C9.38258 4.63214 10.9087 4 12.5 4C14.0913 4 15.6174 4.63214 16.7426 5.75736C17.8679 6.88258 18.5 8.4087 18.5 10C18.5 13.34 14.63 17.66 12.5 19.65ZM12.5 6C11.7089 6 10.9355 6.2346 10.2777 6.67412C9.61992 7.11365 9.10723 7.73836 8.80448 8.46927C8.50173 9.20017 8.42252 10.0044 8.57686 10.7804C8.7312 11.5563 9.11216 12.269 9.67157 12.8284C10.231 13.3878 10.9437 13.7688 11.7196 13.9231C12.4956 14.0775 13.2998 13.9983 14.0307 13.6955C14.7616 13.3928 15.3864 12.8801 15.8259 12.2223C16.2654 11.5645 16.5 10.7911 16.5 10C16.5 8.93913 16.0786 7.92172 15.3284 7.17157C14.5783 6.42143 13.5609 6 12.5 6ZM12.5 12C12.1044 12 11.7178 11.8827 11.3889 11.6629C11.06 11.4432 10.8036 11.1308 10.6522 10.7654C10.5009 10.3999 10.4613 9.99778 10.5384 9.60982C10.6156 9.22186 10.8061 8.86549 11.0858 8.58579C11.3655 8.30608 11.7219 8.1156 12.1098 8.03843C12.4978 7.96126 12.8999 8.00087 13.2654 8.15224C13.6308 8.30362 13.9432 8.55996 14.1629 8.88886C14.3827 9.21776 14.5 9.60444 14.5 10C14.5 10.5304 14.2893 11.0391 13.9142 11.4142C13.5391 11.7893 13.0304 12 12.5 12Z" fill="#B374F7"/>
</svg>
