<svg width="24" height="24" viewBox="0 0 24 24" fill="none" xmlns="http://www.w3.org/2000/svg">
<path d="M20.1731 4.88793C19.1574 3.86956 17.8109 3.24801 16.377 3.13554C14.9431 3.02308 13.5162 3.42712 12.3542 4.27468C11.135 3.36788 9.61755 2.95669 8.10736 3.12392C6.59716 3.29115 5.20642 4.02438 4.2152 5.17595C3.22397 6.32752 2.70589 7.8119 2.76528 9.33016C2.82466 10.8484 3.45711 12.2878 4.53526 13.3584L10.4857 19.3184C10.984 19.8088 11.6551 20.0837 12.3542 20.0837C13.0533 20.0837 13.7244 19.8088 14.2227 19.3184L20.1731 13.3584C21.2919 12.2328 21.9198 10.7102 21.9198 9.12318C21.9198 7.53613 21.2919 6.01356 20.1731 4.88793ZM18.822 12.0361L12.8716 17.9865C12.8039 18.0549 12.7233 18.1092 12.6345 18.1462C12.5457 18.1833 12.4504 18.2023 12.3542 18.2023C12.258 18.2023 12.1627 18.1833 12.0739 18.1462C11.9851 18.1092 11.9045 18.0549 11.8368 17.9865L5.88633 12.0074C5.13486 11.2392 4.71407 10.2073 4.71407 9.13276C4.71407 8.05817 5.13486 7.0263 5.88633 6.25816C6.65208 5.50212 7.68484 5.0782 8.76093 5.0782C9.83701 5.0782 10.8698 5.50212 11.6355 6.25816C11.7246 6.34797 11.8306 6.41925 11.9473 6.4679C12.0641 6.51654 12.1894 6.54159 12.3159 6.54159C12.4423 6.54159 12.5676 6.51654 12.6844 6.4679C12.8011 6.41925 12.9071 6.34797 12.9962 6.25816C13.7619 5.50212 14.7947 5.0782 15.8708 5.0782C16.9469 5.0782 17.9796 5.50212 18.7454 6.25816C19.5072 7.01624 19.9418 8.04251 19.9561 9.11713C19.9704 10.1917 19.5633 11.2292 18.822 12.0074V12.0361Z" fill="#21273A"/>
</svg>
