<svg width="20" height="12" viewBox="0 0 20 12" fill="none" xmlns="http://www.w3.org/2000/svg">
<path d="M0.0859203 6.45643C0.0859203 6.45643 0.0831909 6.44626 0.0804634 6.4419C0.0559082 6.37509 0.0354462 6.30537 0.0218048 6.23275C0.0218048 6.22839 0.0218048 6.22549 0.0204411 6.22113C0.00816345 6.14996 -2.09808e-05 6.07589 -2.09808e-05 6.00036C-2.09808e-05 5.92484 0.0067997 5.85076 0.0204411 5.77959C0.0204411 5.77524 0.0204411 5.77233 0.0218048 5.76797C0.0354462 5.69535 0.0545444 5.62564 0.0804634 5.55882C0.0818272 5.55447 0.0831928 5.54866 0.0859203 5.5443C0.111839 5.47603 0.144579 5.41068 0.182775 5.34822C0.185503 5.34386 0.186871 5.33951 0.189598 5.3366C0.231888 5.26979 0.279631 5.20733 0.332832 5.15069L4.84001 0.351852C5.27927 -0.117284 5.99409 -0.117284 6.43335 0.351852C6.87397 0.820988 6.87397 1.58061 6.43335 2.04829L3.84963 4.7992H17.8745C18.4966 4.7992 19.0013 5.3366 19.0013 5.99891C19.0013 6.66122 18.4966 7.19862 17.8745 7.19862H3.84963L6.43335 9.94953C6.87397 10.4187 6.87397 11.1783 6.43335 11.646C6.21372 11.8798 5.92452 11.9975 5.63668 11.9975C5.34884 11.9975 5.05964 11.8798 4.84001 11.646L0.332832 6.84713C0.279631 6.79049 0.231888 6.72803 0.189598 6.66122C0.186871 6.65686 0.185503 6.65251 0.182775 6.6496C0.144579 6.5886 0.113203 6.52324 0.0859203 6.45352V6.45643Z" fill="white"/>
</svg>
