<svg width="11" height="8" viewBox="0 0 11 8" fill="none" xmlns="http://www.w3.org/2000/svg">
<g clip-path="url(#clip0_16_93)">
<path d="M11 4.00056C11 3.68517 10.7297 3.42891 10.397 3.42891L2.05839 3.42891L4.64534 0.976313C4.88062 0.753255 4.88062 0.391175 4.64534 0.168117C4.52825 0.0560695 4.37395 0.001083 4.21966 0.00108301C4.06536 0.00108303 3.91106 0.0571066 3.79397 0.168117L0.178371 3.59595C0.149919 3.62292 0.12475 3.65197 0.102864 3.6831C0.0930143 3.69658 0.0864492 3.71215 0.0776945 3.72667C0.0667521 3.74535 0.0558087 3.76195 0.0470539 3.78166C0.0383001 3.80033 0.0339218 3.82004 0.0284506 3.83976C0.0229794 3.85636 0.0164133 3.87192 0.0131298 3.88852C-0.00218999 3.96218 -0.00218998 4.03895 0.0131298 4.11261C0.0164134 4.12921 0.0229794 4.14477 0.0284506 4.16137C0.0339219 4.18109 0.039394 4.2008 0.047054 4.21947C0.0558087 4.23919 0.0667521 4.25682 0.0776946 4.27446C0.0864493 4.28898 0.0930144 4.30351 0.102864 4.31803C0.12475 4.34916 0.149919 4.37924 0.178371 4.40518L3.79288 7.83301C4.02815 8.05607 4.41007 8.05607 4.64534 7.83301C4.88062 7.60995 4.88062 7.24787 4.64534 7.02482L2.0584 4.57222L10.397 4.57222C10.7297 4.57222 11 4.31596 11 4.00056Z" fill="#ED682C"/>
</g>
<defs>
<clipPath id="clip0_16_93">
<rect width="11" height="8" fill="white" transform="translate(11 8) rotate(180)"/>
</clipPath>
</defs>
</svg>
