<svg width="58" height="58" viewBox="0 0 58 58" fill="none" xmlns="http://www.w3.org/2000/svg">
<path d="M20.445 30.7159L34.1233 44.3701C34.348 44.5966 34.6153 44.7764 34.9098 44.8991C35.2043 45.0218 35.5201 45.085 35.8392 45.085C36.1582 45.085 36.4741 45.0218 36.7686 44.8991C37.0631 44.7764 37.3303 44.5966 37.555 44.3701C38.0051 43.9173 38.2578 43.3048 38.2578 42.6664C38.2578 42.0279 38.0051 41.4154 37.555 40.9626L25.5925 28.8793L37.555 16.9168C38.0051 16.464 38.2578 15.8515 38.2578 15.213C38.2578 14.5746 38.0051 13.9621 37.555 13.5093C37.3312 13.2809 37.0643 13.0993 36.7697 12.9748C36.4752 12.8504 36.1589 12.7856 35.8392 12.7843C35.5194 12.7856 35.2031 12.8504 34.9086 12.9748C34.6141 13.0993 34.3472 13.2809 34.1233 13.5093L20.445 27.1634C20.1997 27.3897 20.0039 27.6644 19.87 27.9701C19.7361 28.2758 19.667 28.606 19.667 28.9397C19.667 29.2734 19.7361 29.6036 19.87 29.9093C20.0039 30.215 20.1997 30.4896 20.445 30.7159Z" fill="#787783"/>
</svg>
