<svg width="58" height="58" viewBox="0 0 58 58" fill="none" xmlns="http://www.w3.org/2000/svg">
<path d="M37.555 27.2841L23.8767 13.6299C23.652 13.4034 23.3847 13.2236 23.0902 13.1009C22.7957 12.9782 22.4799 12.915 22.1608 12.915C21.8418 12.915 21.5259 12.9782 21.2314 13.1009C20.9369 13.2236 20.6697 13.4034 20.445 13.6299C19.9949 14.0827 19.7422 14.6952 19.7422 15.3336C19.7422 15.9721 19.9949 16.5846 20.445 17.0374L32.4075 29.1207L20.445 41.0832C19.9949 41.536 19.7422 42.1485 19.7422 42.787C19.7422 43.4254 19.9949 44.0379 20.445 44.4907C20.6688 44.7191 20.9357 44.9007 21.2303 45.0252C21.5248 45.1496 21.8411 45.2144 22.1608 45.2157C22.4806 45.2144 22.7969 45.1496 23.0914 45.0252C23.3859 44.9007 23.6528 44.7191 23.8767 44.4907L37.555 30.8366C37.8003 30.6103 37.9961 30.3356 38.13 30.0299C38.2639 29.7242 38.333 29.394 38.333 29.0603C38.333 28.7266 38.2639 28.3964 38.13 28.0907C37.9961 27.785 37.8003 27.5104 37.555 27.2841Z" fill="#787783"/>
</svg>
