<svg width="44" height="49" viewBox="0 0 44 49" fill="none" xmlns="http://www.w3.org/2000/svg">
<g clip-path="url(#clip0_115_730)">
<path d="M22.0002 42.4259C21.7428 42.4259 21.4987 42.3125 21.3344 42.1161C20.7703 41.4443 7.51172 25.5541 7.51172 15.9064C7.51172 6.25866 13.4689 0 22.0002 0C30.5315 0 36.4897 6.54045 36.4897 15.9064C36.4897 25.2723 23.2306 41.4443 22.6661 42.1161C22.5018 42.312 22.2577 42.4259 22.0002 42.4259ZM22.0002 1.72347C14.4911 1.72347 9.24701 7.55565 9.24701 15.9064C9.24701 23.7571 19.2896 36.8133 22.0002 40.1939C24.7109 36.8124 34.7544 23.7528 34.7544 15.9064C34.7544 7.55565 29.5093 1.72347 22.0002 1.72347Z" fill="#ED682C"/>
<path d="M21.9994 22.0749C17.9924 22.0749 14.7324 18.8367 14.7324 14.857C14.7324 10.8774 17.9924 7.63916 21.9994 7.63916C26.0064 7.63916 29.2668 10.8774 29.2668 14.857C29.2668 18.8367 26.0064 22.0749 21.9994 22.0749ZM21.9994 9.36215C18.9491 9.36215 16.4677 11.8271 16.4677 14.8566C16.4677 17.886 18.9486 20.351 21.9994 20.351C25.0501 20.351 27.5315 17.886 27.5315 14.8566C27.5315 11.8271 25.0496 9.36215 21.9994 9.36215Z" fill="#ED682C"/>
<path d="M21.9995 49C11.3351 49 0 46.3937 0 41.5639C0 38.5824 4.58686 36.0738 12.2694 34.8541C12.7475 34.7777 13.1879 35.0998 13.2633 35.5685C13.3388 36.0391 13.0169 36.4808 12.544 36.5558C5.118 37.7346 1.7353 39.9785 1.7353 41.5639C1.7353 44.2661 10.0578 47.2765 21.9995 47.2765C33.9412 47.2765 42.2647 44.2661 42.2647 41.5639C42.2647 40.0036 38.9541 37.783 31.6848 36.5928C31.2119 36.5154 30.8919 36.0728 30.9698 35.6032C31.0462 35.1335 31.489 34.8071 31.9661 34.893C39.6142 36.1435 44 38.5757 44 41.5639C44 46.3937 32.6649 49 21.9995 49Z" fill="#B374F7"/>
</g>
<defs>
<clipPath id="clip0_115_730">
<rect width="44" height="49" fill="white"/>
</clipPath>
</defs>
</svg>
