<svg width="49" height="48" viewBox="0 0 49 48" fill="none" xmlns="http://www.w3.org/2000/svg">
<path d="M44.0688 48C43.9853 48 43.9005 47.9969 43.816 47.9919C20.3831 46.451 1.55018 27.6175 0.00818206 4.18409C-0.0619919 3.10643 0.321747 2.03557 1.0621 1.24513C1.8027 0.453913 2.84827 0 3.93062 0H11.5824C13.4331 0 15.0064 1.26209 15.4078 3.06887L17.4011 12.0383C17.722 13.4823 17.2131 14.9656 16.0723 15.9086L12.201 19.1084C12.0653 19.2201 12.0124 19.4014 12.0711 19.5501C13.5379 23.2604 15.7243 26.5844 18.5698 29.4305C21.4154 32.2756 24.7394 34.4624 28.4503 35.9298C28.594 35.9849 28.7805 35.9358 28.8924 35.8004L32.0912 31.9291C33.0338 30.7889 34.5124 30.2794 35.9625 30.5992L44.931 32.5925C46.7091 32.987 48.0004 34.596 48.0004 36.4179V44.0697C48.0004 45.1518 47.547 46.1974 46.7552 46.9383C46.0266 47.6199 45.0596 48 44.0691 48H44.0688ZM3.93062 2.08696C3.41592 2.08696 2.93801 2.29487 2.58505 2.67183C2.23288 3.04774 2.05783 3.53635 2.09123 4.04739C3.5641 26.4394 21.5607 44.4363 43.9527 45.9089C44.4724 45.9475 44.9534 45.7672 45.3283 45.4145C45.7052 45.0618 45.9131 44.5839 45.9131 44.0695V36.4177C45.9131 35.5657 45.31 34.8138 44.4794 34.6302L35.5099 32.6369C34.8332 32.4819 34.1393 32.7256 33.6992 33.2575L30.5004 37.1298C29.8097 37.9654 28.6785 38.2651 27.6828 37.8697C23.7051 36.2974 20.1426 33.9545 17.0941 30.9057C14.0453 27.857 11.7024 24.2943 10.1302 20.317C9.73679 19.3226 10.035 18.1899 10.8716 17.4989L14.7424 14.2996C15.2758 13.859 15.5137 13.1653 15.364 12.4902L13.3707 3.5207C13.1826 2.67652 12.4475 2.08643 11.5824 2.08643H3.93062V2.08696Z" fill="#ED682C"/>
<path d="M46.959 25.0435C46.3822 25.0435 45.9155 24.5763 45.9155 24C45.9155 11.917 36.0849 2.08696 24.0025 2.08696C23.4262 2.08696 22.959 1.61974 22.959 1.04348C22.959 0.467217 23.4262 0 24.0025 0C37.2364 0 48.0025 10.7663 48.0025 24C48.0025 24.5763 47.5358 25.0435 46.959 25.0435Z" fill="#1FBFD4"/>
<path d="M41.7416 25.0434C41.1648 25.0434 40.6981 24.5762 40.6981 24C40.6981 14.7941 33.2083 7.3043 24.0025 7.3043C23.4262 7.3043 22.959 6.83709 22.959 6.26082C22.959 5.68456 23.4262 5.21735 24.0025 5.21735C34.3587 5.21735 42.7851 13.6432 42.7851 24C42.7851 24.5762 42.3184 25.0434 41.7416 25.0434Z" fill="#8BC800"/>
<path d="M36.5242 25.0435C35.9474 25.0435 35.4807 24.5763 35.4807 24C35.4807 17.6708 30.3317 12.5218 24.0025 12.5218C23.4262 12.5218 22.959 12.0546 22.959 11.4783C22.959 10.902 23.4262 10.4348 24.0025 10.4348C31.4821 10.4348 37.5677 16.5199 37.5677 24C37.5677 24.5763 37.101 25.0435 36.5242 25.0435Z" fill="#B374F7"/>
</svg>
