<svg width="50" height="50" viewBox="0 0 50 50" fill="none" xmlns="http://www.w3.org/2000/svg">
<g clip-path="url(#clip0_115_735)">
<path d="M25.0253 50C11.2519 50 0.0488281 38.7859 0.0488281 25.0009C0.0488281 11.216 11.2519 0 25.0253 0C38.7987 0 49.9999 11.216 49.9999 25.0009C49.9999 38.7859 38.7968 50 25.0253 50ZM25.0253 2.0718C12.3941 2.0718 2.11672 12.3573 2.11672 25.0009C2.11672 37.6446 12.3922 47.9301 25.0234 47.9301C37.6547 47.9301 47.9301 37.6446 47.9301 25.0009C47.9301 12.3573 37.6547 2.0718 25.0253 2.0718Z" fill="#B374F7"/>
<path d="M25.0261 26.0368C24.7627 26.0368 24.5011 25.937 24.2998 25.7393L18.941 20.4486C18.5345 20.0475 18.5289 19.3901 18.9315 18.9833C19.3323 18.5765 19.989 18.5708 20.3954 18.9739L25.0167 23.5375L34.8575 13.5533C35.2601 13.1465 35.9149 13.1408 36.3214 13.5439C36.7278 13.9451 36.7334 14.6024 36.3308 15.0092L25.7637 25.7317C25.5605 25.937 25.2933 26.0406 25.0261 26.0406V26.0368Z" fill="#ED682C"/>
<path d="M24.9743 5.8387C24.4023 5.8387 23.9395 5.37537 23.9395 4.8028V1.0359C23.9395 0.463329 24.4023 0 24.9743 0C25.5463 0 26.0092 0.463329 26.0092 1.0359V4.8028C26.0092 5.37537 25.5463 5.8387 24.9743 5.8387Z" fill="#1FBFD4"/>
<path d="M24.9743 50C24.4023 50 23.9395 49.5367 23.9395 48.9641V45.1972C23.9395 44.6246 24.4023 44.1613 24.9743 44.1613C25.5463 44.1613 26.0092 44.6246 26.0092 45.1972V48.9641C26.0092 49.5367 25.5463 50 24.9743 50Z" fill="#1FBFD4"/>
<path d="M4.7981 26.0368H1.03488C0.462876 26.0368 0 25.5735 0 25.0009C0 24.4284 0.462876 23.965 1.03488 23.965H4.7981C5.37011 23.965 5.83299 24.4284 5.83299 25.0009C5.83299 25.5735 5.37011 26.0368 4.7981 26.0368Z" fill="#1FBFD4"/>
<path d="M48.9153 26.0368H45.1521C44.5801 26.0368 44.1172 25.5735 44.1172 25.0009C44.1172 24.4284 44.5801 23.965 45.1521 23.965H48.9153C49.4873 23.965 49.9502 24.4284 49.9502 25.0009C49.9502 25.5735 49.4873 26.0368 48.9153 26.0368Z" fill="#1FBFD4"/>
<path d="M14.8869 8.54525C14.5294 8.54525 14.1813 8.35879 13.9893 8.0273L12.1077 4.76516C11.8217 4.26981 11.9911 3.63697 12.4878 3.35069C12.9827 3.0644 13.6168 3.2358 13.9009 3.72926L15.7825 6.9914C16.0685 7.48675 15.8992 8.11959 15.4024 8.40587C15.2406 8.50004 15.0619 8.54525 14.8869 8.54525Z" fill="#1FBFD4"/>
<path d="M36.9475 46.7906C36.59 46.7906 36.2419 46.6041 36.05 46.2727L34.1683 43.0105C33.8823 42.5152 34.0517 41.8823 34.5465 41.596C35.0414 41.3098 35.6755 41.4812 35.9596 41.9746L37.8412 45.2368C38.1273 45.7321 37.9579 46.3649 37.463 46.6512C37.3012 46.7454 37.1225 46.7906 36.9475 46.7906Z" fill="#1FBFD4"/>
<path d="M4.24361 38.0194C3.8861 38.0194 3.538 37.8329 3.34608 37.5014C3.06007 37.0061 3.22942 36.3733 3.72428 36.087L6.98323 34.2035C7.47809 33.9172 8.1122 34.0867 8.39632 34.5821C8.68232 35.0774 8.51298 35.7103 8.01811 35.9966L4.75917 37.88C4.59735 37.9742 4.4186 38.0194 4.24361 38.0194Z" fill="#1FBFD4"/>
<path d="M42.4506 15.9378C42.0931 15.9378 41.745 15.7513 41.5531 15.4199C41.2671 14.9245 41.4365 14.2917 41.9313 14.0054L45.1903 12.1219C45.6851 11.8356 46.3192 12.007 46.6033 12.5005C46.8894 12.9958 46.72 13.6287 46.2251 13.915L42.9662 15.7984C42.8044 15.8926 42.6256 15.9378 42.4506 15.9378Z" fill="#1FBFD4"/>
<path d="M7.49963 15.9378C7.32464 15.9378 7.14588 15.8926 6.98407 15.7984L3.72512 13.9149C3.23026 13.6287 3.05903 12.9958 3.34692 12.5005C3.63104 12.0051 4.26702 11.8337 4.76 12.1219L8.01895 14.0053C8.51381 14.2916 8.68504 14.9245 8.39715 15.4198C8.20523 15.7532 7.85713 15.9378 7.49963 15.9378Z" fill="#1FBFD4"/>
<path d="M45.7086 38.0194C45.5336 38.0194 45.3549 37.9742 45.193 37.88L41.9341 35.9965C41.4392 35.7103 41.268 35.0774 41.5559 34.5821C41.84 34.0867 42.476 33.9153 42.969 34.2035L46.2279 36.087C46.7228 36.3732 46.894 37.0061 46.6061 37.5014C46.4142 37.8348 46.0661 38.0194 45.7086 38.0194Z" fill="#1FBFD4"/>
<path d="M13.0044 46.7906C12.8294 46.7906 12.6506 46.7454 12.4888 46.6512C11.9939 46.3649 11.8227 45.7321 12.1106 45.2367L13.9922 41.9746C14.2763 41.4792 14.9123 41.3078 15.4053 41.596C15.9001 41.8823 16.0714 42.5151 15.7835 43.0105L13.9019 46.2726C13.71 46.606 13.3619 46.7906 13.0044 46.7906Z" fill="#1FBFD4"/>
<path d="M35.0635 8.54521C34.8885 8.54521 34.7098 8.50001 34.548 8.40584C34.0531 8.11955 33.8819 7.48671 34.1679 6.99137L36.0495 3.72923C36.3355 3.23388 36.9696 3.06249 37.4626 3.35065C37.9574 3.63694 38.1287 4.26978 37.8426 4.76513L35.961 8.02726C35.7691 8.36064 35.421 8.54521 35.0635 8.54521Z" fill="#1FBFD4"/>
</g>
<defs>
<clipPath id="clip0_115_735">
<rect width="50" height="50" fill="white"/>
</clipPath>
</defs>
</svg>
