<svg width="52" height="49" viewBox="0 0 52 49" fill="none" xmlns="http://www.w3.org/2000/svg">
<g clip-path="url(#clip0_115_751)">
<path d="M51.2277 19.3457L26.9868 37.6495C26.4441 38.059 25.5571 38.059 25.0144 37.6495L0.773438 19.3457L25.0144 1.04102C25.5571 0.63151 26.4441 0.63151 26.9868 1.04102L51.2277 19.3448" fill="white"/>
<path d="M50.7609 19.994L26.52 1.69028C26.2533 1.48879 25.7481 1.48879 25.4814 1.69028L1.24042 19.994L0.306641 18.7655L24.5476 0.461762C25.3626 -0.152966 26.6388 -0.153899 27.4528 0.461762L51.6938 18.7665L50.76 19.995L50.7609 19.994Z" fill="#B374F7"/>
<path d="M42.2024 6.95508H9.79688V47.9534H42.2024V6.95508Z" fill="white"/>
<path d="M42.2018 48.7239H9.79629C9.36963 48.7239 9.02344 48.3787 9.02344 47.9534V6.95508C9.02344 6.52971 9.36963 6.18457 9.79629 6.18457H42.2018C42.6284 6.18457 42.9746 6.52971 42.9746 6.95508V47.9534C42.9746 48.3787 42.6284 48.7239 42.2018 48.7239ZM10.5691 47.1829H41.4289V7.72559H10.5691V47.1819V47.1829Z" fill="#E8065B"/>
<path d="M32.1254 33.7699L51.2277 19.3448V48.1941H0.773438V19.3448L19.9347 33.7699H32.1254Z" fill="white"/>
<path d="M51.2271 49H0.772852C0.346193 49 0 48.6548 0 48.2295V19.3802C0 19.0882 0.165611 18.8205 0.42853 18.6899C0.69145 18.5593 1.00489 18.5883 1.23881 18.7646L20.4001 33.1887L19.4682 34.4191L1.5457 20.9278V47.458H50.4543V20.9492L32.9622 34.4144L32.0172 33.1943L50.7546 18.7702C50.9886 18.5901 51.3039 18.5584 51.5677 18.6881C51.8325 18.8177 52 19.0864 52 19.3802V48.2295C52 48.6548 51.6538 49 51.2271 49Z" fill="#B374F7"/>
<path d="M49.9911 48.7239H2.01067C1.08343 48.7239 0.787767 48.2575 0.694201 47.9804C0.600636 47.7025 0.553853 47.153 1.29302 46.5943L19.0443 33.1906L19.9781 34.4191L3.07451 47.182H48.9263L32.0237 34.4191L32.9575 33.1906L50.7087 46.5943C51.4479 47.1521 51.4011 47.7025 51.3076 47.9804C51.214 48.2584 50.9183 48.7239 49.9911 48.7239Z" fill="#B374F7"/>
<path d="M32.4892 33.0339H19.5098V34.5758H32.4892V33.0339Z" fill="#B374F7"/>
<path d="M35.9408 15.6462H16.06C15.6333 15.6462 15.2871 15.301 15.2871 14.8757C15.2871 14.4503 15.6333 14.1052 16.06 14.1052H35.9408C36.3674 14.1052 36.7136 14.4503 36.7136 14.8757C36.7136 15.301 36.3674 15.6462 35.9408 15.6462Z" fill="#ED682C"/>
<path d="M35.9408 20.8261H16.06C15.6333 20.8261 15.2871 20.481 15.2871 20.0556C15.2871 19.6302 15.6333 19.2851 16.06 19.2851H35.9408C36.3674 19.2851 36.7136 19.6302 36.7136 20.0556C36.7136 20.481 36.3674 20.8261 35.9408 20.8261Z" fill="#ED682C"/>
<path d="M35.9408 26.0051H16.06C15.6333 26.0051 15.2871 25.66 15.2871 25.2346C15.2871 24.8093 15.6333 24.4641 16.06 24.4641H35.9408C36.3674 24.4641 36.7136 24.8093 36.7136 25.2346C36.7136 25.66 36.3674 26.0051 35.9408 26.0051Z" fill="#ED682C"/>
</g>
<defs>
<clipPath id="clip0_115_751">
<rect width="52" height="49" fill="white"/>
</clipPath>
</defs>
</svg>
