<svg width="26" height="26" viewBox="0 0 26 26" fill="none" xmlns="http://www.w3.org/2000/svg">
<path d="M21.9679 2.10205H3.25839C2.95175 2.10205 2.65766 2.22386 2.44083 2.4407C2.224 2.65753 2.10219 2.95161 2.10219 3.25826V21.9677C2.10219 22.1196 2.13209 22.2699 2.1902 22.4102C2.2483 22.5505 2.33347 22.6779 2.44083 22.7853C2.5482 22.8927 2.67566 22.9778 2.81593 23.0359C2.95621 23.094 3.10656 23.1239 3.25839 23.1239H13.3279V14.978H10.595V11.8247H13.3279V9.45971C13.2713 8.90448 13.3368 8.34359 13.5199 7.81637C13.703 7.28915 13.9993 6.80838 14.3879 6.40777C14.7765 6.00716 15.248 5.69642 15.7694 5.49734C16.2908 5.29826 16.8494 5.21566 17.4061 5.25534C18.2242 5.2503 19.0419 5.29241 19.8552 5.38147V8.21942H18.1839C16.8596 8.21942 16.6073 8.85008 16.6073 9.76453V11.7931H19.7606L19.3507 14.9464H16.6073V23.1239H21.9679C22.1197 23.1239 22.2701 23.094 22.4103 23.0359C22.5506 22.9778 22.6781 22.8927 22.7854 22.7853C22.8928 22.6779 22.978 22.5505 23.0361 22.4102C23.0942 22.2699 23.1241 22.1196 23.1241 21.9677V3.25826C23.1241 3.10642 23.0942 2.95607 23.0361 2.8158C22.978 2.67552 22.8928 2.54806 22.7854 2.4407C22.6781 2.33333 22.5506 2.24817 22.4103 2.19006C22.2701 2.13196 22.1197 2.10205 21.9679 2.10205Z" fill="#B374F7"/>
</svg>
