<svg width="26" height="26" viewBox="0 0 26 26" fill="none" xmlns="http://www.w3.org/2000/svg">
<path d="M18.9997 5.73884C18.7502 5.73884 18.5063 5.81281 18.2989 5.95141C18.0915 6.09 17.9298 6.28699 17.8344 6.51747C17.7389 6.74794 17.7139 7.00155 17.7626 7.24622C17.8113 7.49089 17.9314 7.71564 18.1078 7.89204C18.2842 8.06843 18.5089 8.18856 18.7536 8.23723C18.9983 8.2859 19.2519 8.26092 19.4823 8.16545C19.7128 8.06999 19.9098 7.90832 20.0484 7.7009C20.187 7.49348 20.261 7.24962 20.261 7.00015C20.261 6.66563 20.1281 6.34481 19.8915 6.10827C19.655 5.87173 19.3342 5.73884 18.9997 5.73884ZM23.8347 8.28249C23.8143 7.41039 23.6509 6.54755 23.3512 5.72833C23.0839 5.02739 22.668 4.39268 22.1319 3.86789C21.6114 3.32913 20.9753 2.91578 20.2715 2.65913C19.4544 2.35028 18.5906 2.18321 17.7173 2.16512C16.6032 2.10205 16.2458 2.10205 13.3868 2.10205C10.5278 2.10205 10.1705 2.10205 9.05631 2.16512C8.18301 2.18321 7.31921 2.35028 6.50215 2.65913C5.79968 2.91838 5.16403 3.33137 4.64171 3.86789C4.10295 4.38837 3.6896 5.02456 3.43295 5.72833C3.1241 6.54539 2.95702 7.40919 2.93894 8.28249C2.87587 9.39665 2.87587 9.75402 2.87587 12.613C2.87587 15.472 2.87587 15.8294 2.93894 16.9435C2.95702 17.8168 3.1241 18.6806 3.43295 19.4977C3.6896 20.2014 4.10295 20.8376 4.64171 21.3581C5.16403 21.8946 5.79968 22.3076 6.50215 22.5669C7.31921 22.8757 8.18301 23.0428 9.05631 23.0609C10.1705 23.1239 10.5278 23.1239 13.3868 23.1239C16.2458 23.1239 16.6032 23.1239 17.7173 23.0609C18.5906 23.0428 19.4544 22.8757 20.2715 22.5669C20.9753 22.3102 21.6114 21.8969 22.1319 21.3581C22.6703 20.8353 23.0867 20.2 23.3512 19.4977C23.6509 18.6784 23.8143 17.8156 23.8347 16.9435C23.8347 15.8294 23.8978 15.472 23.8978 12.613C23.8978 9.75402 23.8978 9.39665 23.8347 8.28249ZM21.9427 16.8174C21.9351 17.4846 21.8142 18.1457 21.5854 18.7724C21.4175 19.2298 21.148 19.6432 20.797 19.9812C20.4561 20.3286 20.0436 20.5976 19.5883 20.7695C18.9615 20.9984 18.3004 21.1192 17.6332 21.1269C16.5821 21.1794 16.1932 21.1899 13.4289 21.1899C10.6645 21.1899 10.2756 21.1899 9.22448 21.1269C8.5317 21.1398 7.84187 21.0332 7.18536 20.8115C6.74998 20.6308 6.35642 20.3625 6.02915 20.0232C5.68028 19.6856 5.4141 19.2719 5.25134 18.8145C4.99473 18.1787 4.85239 17.5026 4.83091 16.8174C4.83091 15.7663 4.76784 15.3774 4.76784 12.613C4.76784 9.84862 4.76784 9.45971 4.83091 8.40862C4.83562 7.72652 4.96014 7.05055 5.19879 6.41154C5.38383 5.96788 5.66786 5.57241 6.02915 5.25534C6.34849 4.89394 6.74315 4.60691 7.18536 4.41446C7.82605 4.18326 8.50133 4.06243 9.18244 4.05709C10.2335 4.05709 10.6224 3.99402 13.3868 3.99402C16.1512 3.99402 16.5401 3.99402 17.5912 4.05709C18.2584 4.06474 18.9195 4.18558 19.5462 4.41446C20.0239 4.59173 20.4526 4.87993 20.797 5.25534C21.1415 5.57821 21.4106 5.97295 21.5854 6.41154C21.819 7.05159 21.9399 7.72728 21.9427 8.40862C21.9953 9.45971 22.0058 9.84862 22.0058 12.613C22.0058 15.3774 21.9953 15.7663 21.9427 16.8174ZM13.3868 7.22088C12.3208 7.22296 11.2793 7.54097 10.394 8.13472C9.50864 8.72848 8.81916 9.57134 8.41265 10.5568C8.00615 11.5423 7.90086 12.6261 8.11011 13.6714C8.31935 14.7167 8.83372 15.6765 9.58824 16.4295C10.3428 17.1826 11.3036 17.6951 12.3492 17.9023C13.3949 18.1095 14.4786 18.0021 15.4632 17.5937C16.4479 17.1852 17.2894 16.4941 17.8814 15.6076C18.4735 14.7211 18.7894 13.679 18.7894 12.613C18.7908 11.9036 18.652 11.201 18.3808 10.5455C18.1097 9.88993 17.7116 9.29449 17.2095 8.79337C16.7074 8.29226 16.1112 7.89535 15.4552 7.62548C14.7991 7.35561 14.0962 7.21811 13.3868 7.22088ZM13.3868 16.1131C12.6946 16.1131 12.0178 15.9079 11.4422 15.5233C10.8666 15.1387 10.418 14.592 10.1531 13.9524C9.88819 13.3129 9.81887 12.6091 9.95393 11.9302C10.089 11.2512 10.4223 10.6275 10.9118 10.138C11.4013 9.64852 12.025 9.31516 12.704 9.18011C13.3829 9.04505 14.0867 9.11437 14.7263 9.37929C15.3658 9.6442 15.9125 10.0928 16.2971 10.6684C16.6817 11.244 16.887 11.9207 16.887 12.613C16.887 13.0726 16.7964 13.5278 16.6205 13.9524C16.4446 14.3771 16.1868 14.763 15.8618 15.088C15.5368 15.413 15.1509 15.6708 14.7263 15.8467C14.3016 16.0226 13.8465 16.1131 13.3868 16.1131Z" fill="#B374F7"/>
</svg>
